<svg width="40" height="40" viewBox="0 0 40 40" fill="none" xmlns="http://www.w3.org/2000/svg">
<path fill-rule="evenodd" clip-rule="evenodd" d="M27.5229 35.8333H13.6098C8.49924 35.8333 4.57857 33.9874 5.69222 26.558L6.98894 16.4893C7.67544 12.7822 10.04 11.3635 12.1148 11.3635H29.0789C31.1842 11.3635 33.4115 12.889 34.2048 16.4893L35.5015 26.558C36.4474 33.1484 32.6335 35.8333 27.5229 35.8333Z" stroke="white" stroke-width="1.5" stroke-linecap="round" stroke-linejoin="round"/>
<path d="M27.7517 10.9973C27.7517 7.02055 24.5279 3.79666 20.5511 3.79666C18.6361 3.78861 16.7968 4.54366 15.4398 5.89492C14.0828 7.24618 13.32 9.08232 13.32 10.9973" stroke="white" stroke-width="1.5" stroke-linecap="round" stroke-linejoin="round"/>
<path d="M25.4939 18.5031H25.4176" stroke="white" stroke-width="1.5" stroke-linecap="round" stroke-linejoin="round"/>
<path d="M15.7761 18.5031H15.6998" stroke="white" stroke-width="1.5" stroke-linecap="round" stroke-linejoin="round"/>
</svg>
